<?xml version="1.0" encoding="UTF-8"?>
<svg width="200px" height="48px" viewBox="0 0 200 32" version="1.1" xmlns="http://www.w3.org/2000/svg" xmlns:xlink="http://www.w3.org/1999/xlink">
    <title>MKContentAI_Logo</title>
    <g id="MKContentAI_Logo" stroke="none" stroke-width="1" fill="none" fill-rule="evenodd">
        <g id="Logo-MK-ContentAI">
            <g id="Bildteil">
                <circle id="Oval" fill="#1068C9" cx="16" cy="16" r="16"></circle>
                <g id="Quadrate" transform="translate(7, 7)" fill="#FFFFFF">
                    <path d="M1.05555556,0 L11.6111111,0 C12.1940783,-1.07089344e-16 12.6666667,0.47258832 12.6666667,1.05555556 L12.6666667,11.6111111 C12.6666667,12.1940783 12.1940783,12.6666667 11.6111111,12.6666667 L1.05555556,12.6666667 C0.47258832,12.6666667 2.93437501e-16,12.1940783 0,11.6111111 L0,1.05555556 C-7.13928959e-17,0.47258832 0.47258832,3.29133949e-16 1.05555556,0 Z" id="Rectangle" fill-opacity="0.6" fill-rule="nonzero" transform="translate(6.3333, 6.3333) rotate(90) translate(-6.3333, -6.3333)"></path>
                    <path d="M6.38888889,5.33333333 L16.9444444,5.33333333 C17.5274117,5.33333333 18,5.80592165 18,6.38888889 L18,16.9444444 C18,17.5274117 17.5274117,18 16.9444444,18 L6.38888889,18 C5.80592165,18 5.33333333,17.5274117 5.33333333,16.9444444 L5.33333333,6.38888889 C5.33333333,5.80592165 5.80592165,5.33333333 6.38888889,5.33333333 Z" id="Rectangle" fill-opacity="0.6" fill-rule="nonzero" transform="translate(11.6667, 11.6667) rotate(90) translate(-11.6667, -11.6667)"></path>
                    <path d="M6.38888892,5.33333333 L12.6633333,5.33333333 L12.6633333,5.33333333 L12.6633333,11.6077778 C12.6633333,12.190745 12.190745,12.6633333 11.6077778,12.6633333 L5.33333333,12.6633333 L5.33333333,12.6633333 L5.33333333,6.38888892 C5.33333333,5.80592166 5.80592166,5.33333333 6.38888892,5.33333333 Z" id="Rectangle"></path>
                </g>
            </g>
            <g id="txt" transform="translate(39, 6)" fill-rule="nonzero">
                <path d="M20.3725132,10.9832451 L20.3725132,10.9876543 C21.0903514,11.4858907 21.8169975,12.0723104 22.5524513,12.7557319 C23.2879052,13.4391534 24.0013395,14.1534392 24.6883504,14.9118166 C25.3797651,15.6657848 26.0359485,16.4506173 26.6613045,17.2574956 C27.2866605,18.0687831 27.83715,18.840388 28.3171768,19.5767196 L32.4260299,19.5767196 C31.8359052,18.6199295 31.1885297,17.6587302 30.4794993,16.6887125 C29.7704689,15.7231041 29.0306111,14.792769 28.2599259,13.8977072 C27.4892406,13.0070547 26.7009398,12.1693122 25.8994271,11.3844797 C25.0979145,10.6040564 24.3140176,9.91622575 23.5389284,9.32539683 C24.239151,8.64197531 24.9481814,7.92768959 25.6748274,7.16931217 C26.4014735,6.41534392 27.1237156,5.65696649 27.8415539,4.88977072 C28.5593921,4.12698413 29.2596147,3.3686067 29.9378177,2.61022928 C30.6160207,1.85626102 31.2633962,1.1287478 31.8667327,0.427689594 L27.7006286,0.427689594 C27.2206018,0.961199295 26.687728,1.56084656 26.1020072,2.22222222 C25.5118826,2.88359788 24.8909305,3.57142857 24.239151,4.28130511 C23.5873715,4.99118166 22.9267842,5.68783069 22.2661968,6.38007055 C21.6276291,7.04585538 21.0154848,7.67195767 20.4297641,8.25837743 C20.4077445,8.28042328 20.174337,8.50088183 20.174337,8.50088183 L20.174337,8.43474427 C20.174337,8.4303351 20.174337,8.42592593 20.174337,8.42151675 C20.174337,8.41710758 20.174337,8.41269841 20.174337,8.40828924 C20.0818547,7.21340388 19.9761608,6.04056437 19.8660629,4.88977072 C19.7163298,3.31569665 19.5577888,1.829806 19.39044,0.427689594 L16.2592561,0.427689594 C15.8540958,1.1287478 15.4048965,1.98412698 14.907254,2.99823633 C14.4096116,4.01234568 13.9031613,5.07495591 13.3923071,6.18606702 C12.877049,7.3015873 12.3705987,8.4303351 11.8773601,9.58112875 C11.3797177,10.7319224 10.9217105,11.7945326 10.4989346,12.7689594 C10.0761587,11.7945326 9.61374757,10.7319224 9.10729728,9.58112875 C8.600847,8.4303351 8.0899928,7.29717813 7.57473468,6.18606702 C7.05947657,5.07054674 6.55302628,4.00793651 6.05978775,2.99823633 C5.56214529,1.98412698 5.11294591,1.1287478 4.70778568,0.427689594 L1.49292736,0.427689594 C1.32557857,1.75485009 1.16703761,3.2010582 1.01730448,4.76190476 C0.867571356,6.32716049 0.731049975,7.94091711 0.607740341,9.60758377 C0.484430707,11.2742504 0.374332819,12.9541446 0.268638846,14.6472663 C0.16734879,16.340388 0.0748665637,17.9805996 0,19.5634921 L3.42184235,19.5634921 C3.49670892,17.3368607 3.58478723,15.0440917 3.6904812,12.6851852 C3.79177126,10.3306878 3.95031222,8.04673721 4.15289233,5.8377425 C4.35547244,6.24338624 4.59328388,6.74603175 4.87073056,7.34126984 C5.14817724,7.94091711 5.43883566,8.58024691 5.75151366,9.25925926 C6.06419166,9.94268078 6.38127358,10.6481481 6.70275941,11.3844797 C7.02424524,12.1208113 7.33692325,12.835097 7.64079342,13.5229277 C7.94466359,14.2151675 8.22651418,14.8633157 8.48194128,15.4717813 C8.73736838,16.0802469 8.96196807,16.5961199 9.14252861,17.0194004 L11.7364348,17.0194004 C11.9213993,16.5961199 12.1415951,16.0846561 12.3970222,15.4850088 C12.6524493,14.8853616 12.9342999,14.2416226 13.23817,13.5537919 C13.5420402,12.861552 13.8547182,12.1516755 14.176204,11.4153439 C14.4976899,10.6790123 14.8147718,9.96472663 15.1274498,9.27689594 C15.4401278,8.58465608 15.7351901,7.94532628 16.0082329,7.35890653 C16.2856796,6.7680776 16.523491,6.2654321 16.7260711,5.8377425 C16.9330552,8.04673721 17.0871922,10.3306878 17.1884822,12.6851852 C17.2897723,15.0440917 17.3822545,17.3324515 17.4571211,19.5634921 L20.8789635,19.5634921 C20.8040969,17.9805996 20.7160186,16.3536155 20.6103246,14.6869489 L20.3725132,10.9832451 Z" id="Path" fill="#1068C9"></path>
                <path d="M44.1888883,20 C42.7532118,20 41.4672685,19.7795414 40.3266544,19.3386243 C39.1860402,18.8977072 38.2215827,18.2495591 37.428878,17.3897707 C36.6361732,16.5343915 36.0328367,15.489418 35.6100608,14.2548501 C35.187285,13.0202822 34.975897,11.6049383 34.975897,10 C34.975897,8.3994709 35.2181124,6.97971781 35.706947,5.74514991 C36.1957816,4.51058201 36.8607728,3.46560847 37.7063246,2.61022928 C38.5518764,1.75485009 39.5471613,1.10670194 40.6877754,0.661375661 C41.8283895,0.220458554 43.0482741,0 44.3562371,0 C45.1445379,0 45.8623762,0.0617283951 46.5097517,0.180776014 C47.1527234,0.299823633 47.7120207,0.432098765 48.1920475,0.582010582 C48.6720743,0.727513228 49.0640227,0.886243386 49.3767007,1.04938272 C49.6893787,1.21693122 49.9095745,1.33597884 50.0372881,1.40652557 L49.0155797,4.25044092 C48.5751881,3.97266314 47.9454282,3.71252205 47.1262999,3.46119929 C46.3071716,3.21428571 45.4219846,3.08641975 44.4663349,3.08641975 C43.6383988,3.08641975 42.8677136,3.22751323 42.1498754,3.51410935 C41.4320372,3.80070547 40.8110851,4.22839506 40.2870191,4.79717813 C39.7629532,5.3659612 39.353389,6.08465608 39.0583267,6.95326279 C38.7632644,7.81746032 38.6179351,8.82275132 38.6179351,9.96472663 C38.6179351,10.978836 38.7324369,11.9091711 38.9614405,12.7557319 C39.1904442,13.6022928 39.5471613,14.3342152 40.0227842,14.9514991 C40.502811,15.5687831 41.1061474,16.0493827 41.8416013,16.3888889 C42.5770552,16.7283951 43.4578383,16.9003527 44.4883545,16.9003527 C45.7214509,16.9003527 46.7211397,16.7768959 47.4962288,16.5255732 C48.266914,16.2786596 48.8658465,16.0405644 49.2886224,15.8201058 L50.2266564,18.6640212 C50.0064607,18.8095238 49.7069944,18.9594356 49.3282577,19.1049383 C48.9495209,19.2504409 48.5047255,19.3959436 47.9894674,19.5326279 C47.4742092,19.6693122 46.8972963,19.7795414 46.2499207,19.8633157 C45.611353,19.9559083 44.9199382,20 44.1888883,20 Z" id="Path" fill="#0B3058"></path>
                <path d="M65.261624,12.3500882 C65.261624,13.4920635 65.0942752,14.5326279 64.7639815,15.4717813 C64.4336879,16.4109347 63.9624689,17.2134039 63.3591325,17.8747795 C62.7557961,18.5361552 62.0203422,19.0520282 61.1659826,19.4223986 C60.311623,19.792769 59.369185,19.973545 58.3386688,19.973545 C57.3081526,19.973545 56.3701186,19.7883598 55.5245668,19.4223986 C54.679015,19.0564374 53.952369,18.5405644 53.3446286,17.8747795 C52.7368883,17.2089947 52.2656693,16.4109347 51.9221639,15.4717813 C51.5830624,14.5326279 51.4113097,13.4920635 51.4113097,12.3500882 C51.4113097,11.2081129 51.5830624,10.1719577 51.9221639,9.24162257 C52.2612654,8.31128748 52.7412922,7.51322751 53.3578404,6.85185185 C53.9743885,6.19047619 54.7054385,5.67901235 55.5509903,5.31746032 C56.3965421,4.96031746 57.3257682,4.77954145 58.3386688,4.77954145 C59.3515694,4.77954145 60.2851995,4.96031746 61.1395591,5.31746032 C61.9939187,5.67460317 62.7249687,6.18606702 63.332709,6.85185185 C63.9404493,7.51322751 64.4116683,8.31128748 64.7551737,9.24162257 C65.0898713,10.1719577 65.261624,11.2081129 65.261624,12.3500882 Z M61.8397816,12.3500882 C61.8397816,10.9126984 61.5315076,9.77954145 60.9149594,8.94179894 C60.2984112,8.10405644 59.4396477,7.68518519 58.3342649,7.68518519 C57.2288821,7.68518519 56.3701186,8.10405644 55.7535704,8.94179894 C55.1370222,9.77954145 54.8287481,10.9171076 54.8287481,12.3500882 C54.8287481,13.8051146 55.1370222,14.9559083 55.7535704,15.8024691 C56.3701186,16.64903 57.2288821,17.0723104 58.3342649,17.0723104 C59.4396477,17.0723104 60.2984112,16.64903 60.9149594,15.8024691 C61.5315076,14.9559083 61.8397816,13.8051146 61.8397816,12.3500882 Z" id="Shape" fill="#0B3058"></path>
                <path d="M68.1549965,5.60846561 C68.7979682,5.42328042 69.6347121,5.25132275 70.6652283,5.08377425 C71.6957446,4.91622575 72.8363587,4.83686067 74.0870707,4.83686067 C75.2629161,4.83686067 76.2493932,5 77.0376941,5.32186949 C77.825995,5.64373898 78.4601588,6.09347443 78.9269738,6.67548501 C79.3981928,7.25749559 79.7284865,7.95414462 79.9222587,8.77425044 C80.116031,9.59435626 80.2129172,10.489418 80.2129172,11.468254 L80.2129172,19.5899471 L76.8747492,19.5899471 L76.8747492,11.9885362 C76.8747492,11.2169312 76.8219022,10.5555556 76.7250161,10.0132275 C76.623726,9.47089947 76.4563772,9.02998236 76.2273736,8.68606702 C75.99837,8.34656085 75.685692,8.0952381 75.2893396,7.94091711 C74.8929872,7.78659612 74.4129604,7.70723104 73.8404514,7.70723104 C73.4176755,7.70723104 72.977284,7.73368607 72.5148728,7.79100529 C72.0568656,7.84832451 71.7133602,7.89241623 71.4931644,7.92768959 L71.4931644,19.5811287 L68.1549965,19.5811287 L68.1549965,5.60846561 L68.1549965,5.60846561 Z" id="Path" fill="#0B3058"></path>
                <path d="M83.5775086,1.33156966 L86.9156766,0.78042328 L86.9156766,5.14550265 L92.0462382,5.14550265 L92.0462382,7.93650794 L86.9156766,7.93650794 L86.9156766,13.8183422 C86.9156766,14.9779541 87.100641,15.8068783 87.466166,16.3051146 C87.831691,16.803351 88.457047,17.0502646 89.342234,17.0502646 C89.9499744,17.0502646 90.4872521,16.984127 90.9540671,16.856261 C91.4252861,16.7283951 91.795215,16.6093474 92.0726616,16.4991182 L92.6231511,19.14903 C92.2356065,19.3165785 91.7291562,19.484127 91.1038002,19.6604938 C90.4784442,19.8368607 89.7429903,19.9206349 88.8974386,19.9206349 C87.8669223,19.9206349 87.0081588,19.7839506 86.3167441,19.5061728 C85.6253293,19.2283951 85.0792438,18.8315697 84.6740836,18.3068783 C84.2689234,17.7821869 83.9826688,17.1472663 83.819724,16.4021164 C83.6523752,15.6569665 83.5731047,14.8059965 83.5731047,13.8492063 L83.5731047,1.33156966 L83.5775086,1.33156966 Z" id="Path" fill="#0B3058"></path>
                <path d="M93.671283,12.4294533 C93.671283,11.159612 93.8606513,10.0440917 94.2349842,9.08730159 C94.6137209,8.13051146 95.1113633,7.3324515 95.7367194,6.69753086 C96.3620754,6.06261023 97.0799136,5.58201058 97.890234,5.26014109 C98.7005545,4.9382716 99.5284906,4.77513228 100.374042,4.77513228 C102.360208,4.77513228 103.910387,5.39241623 105.020173,6.62698413 C106.134364,7.86155203 106.689257,9.70017637 106.689257,12.1516755 C106.689257,12.3368607 106.684853,12.5440917 106.676045,12.7733686 C106.667238,13.0026455 106.654026,13.2098765 106.63641,13.3950617 L97.1195488,13.3950617 C97.212031,14.5546737 97.6215952,15.4541446 98.3482413,16.0890653 C99.0748873,16.7239859 100.127423,17.0414462 101.505849,17.0414462 C102.316169,17.0414462 103.056027,16.9664903 103.725422,16.8209877 C104.394817,16.675485 104.923287,16.5167549 105.310832,16.3492063 L105.751223,19.0828924 C105.566259,19.175485 105.315236,19.2724868 104.99375,19.3738977 C104.672264,19.4753086 104.302335,19.5679012 103.892771,19.6516755 C103.478803,19.7354497 103.034007,19.8015873 102.553981,19.8589065 C102.073954,19.9162257 101.589523,19.9426808 101.091881,19.9426808 C99.8235529,19.9426808 98.7181702,19.7530864 97.7801361,19.3783069 C96.8421021,18.9991182 96.0714169,18.4744268 95.4636766,17.8042328 C94.8559362,17.1340388 94.4067369,16.340388 94.1116745,15.4276896 C93.8210161,14.5149912 93.671283,13.5185185 93.671283,12.4294533 Z M103.355493,10.9391534 C103.355493,10.4805996 103.289434,10.0396825 103.161721,9.62962963 C103.034007,9.21516755 102.844639,8.85802469 102.593616,8.55379189 C102.346997,8.24955908 102.043126,8.01146384 101.682005,7.835097 C101.325288,7.65873016 100.893704,7.57495591 100.400466,7.57495591 C99.8852078,7.57495591 99.4360084,7.67195767 99.0484638,7.8659612 C98.6609193,8.05996473 98.3350295,8.31128748 98.0707946,8.62433862 C97.8021557,8.93738977 97.5951717,9.29453263 97.4498425,9.70017637 C97.3045133,10.1058201 97.2032232,10.5202822 97.1459723,10.9435626 L103.355493,10.9435626 L103.355493,10.9391534 Z" id="Shape" fill="#0B3058"></path>
                <path d="M109.670708,5.60846561 C110.31368,5.42328042 111.150424,5.25132275 112.18094,5.08377425 C113.211456,4.91622575 114.35207,4.83686067 115.602782,4.83686067 C116.778628,4.83686067 117.765105,5 118.553406,5.32186949 C119.341707,5.64373898 119.97587,6.09347443 120.442685,6.67548501 C120.913904,7.25749559 121.244198,7.95414462 121.43797,8.77425044 C121.631743,9.59435626 121.728629,10.489418 121.728629,11.468254 L121.728629,19.5899471 L118.390461,19.5899471 L118.390461,11.9885362 C118.390461,11.2169312 118.337614,10.5555556 118.240728,10.0132275 C118.139438,9.47089947 117.972089,9.02998236 117.743085,8.68606702 C117.514082,8.34656085 117.201404,8.0952381 116.805051,7.94091711 C116.408699,7.78659612 115.928672,7.70723104 115.356163,7.70723104 C114.933387,7.70723104 114.492996,7.73368607 114.030584,7.79100529 C113.572577,7.84832451 113.229072,7.89241623 113.008876,7.92768959 L113.008876,19.5811287 L109.670708,19.5811287 L109.670708,5.60846561 L109.670708,5.60846561 Z" id="Path" fill="#0B3058"></path>
                <path d="M125.09322,1.33156966 L128.431388,0.78042328 L128.431388,5.14550265 L133.56195,5.14550265 L133.56195,7.93650794 L128.431388,7.93650794 L128.431388,13.8183422 C128.431388,14.9779541 128.616353,15.8068783 128.981878,16.3051146 C129.347403,16.803351 129.972759,17.0502646 130.857946,17.0502646 C131.465686,17.0502646 132.002964,16.984127 132.469779,16.856261 C132.940998,16.7283951 133.310927,16.6093474 133.588373,16.4991182 L134.138863,19.14903 C133.751318,19.3165785 133.244868,19.484127 132.623916,19.6604938 C131.99856,19.8368607 131.263106,19.9206349 130.417554,19.9206349 C129.387038,19.9206349 128.528274,19.7839506 127.83686,19.5061728 C127.145445,19.2283951 126.599359,18.8315697 126.194199,18.3068783 C125.789039,17.7821869 125.502784,17.1472663 125.339839,16.4021164 C125.172491,15.6569665 125.09322,14.8059965 125.09322,13.8492063 L125.09322,1.33156966 Z" id="Path" fill="#0B3058"></path>
                <path d="M151.322941,19.5855379 C151.06311,18.8315697 150.798875,18.0864198 150.521428,17.3500882 C150.243982,16.6137566 149.979747,15.8597884 149.719916,15.0837743 L141.647539,15.0837743 C141.387708,15.8553792 141.127877,16.6181658 140.859238,17.3633157 C140.590599,18.1084656 140.330768,18.8492063 140.070937,19.5855379 L136.455322,19.5855379 C137.17316,17.5396825 137.851363,15.6525573 138.494335,13.9241623 C139.137307,12.1957672 139.767067,10.5555556 140.383615,9.00793651 C141.000163,7.46031746 141.612307,5.98765432 142.215644,4.58994709 C142.823384,3.19223986 143.44874,1.81216931 144.091712,0.445326279 L147.40786,0.445326279 C148.050832,1.80776014 148.676188,3.18783069 149.283928,4.58994709 C149.891668,5.98765432 150.503813,7.46031746 151.120361,9.00793651 C151.736909,10.5555556 152.371073,12.191358 153.022852,13.9241623 C153.674632,15.6569665 154.361643,17.5440917 155.079481,19.5855379 L151.322941,19.5855379 Z M145.681525,4.14462081 C145.258749,5.11904762 144.774319,6.30952381 144.232637,7.70723104 C143.690955,9.10493827 143.12285,10.6261023 142.53713,12.2619048 L148.825921,12.2619048 C148.235796,10.6216931 147.667691,9.09611993 147.117202,7.67636684 C146.566712,6.2654321 146.086685,5.08377425 145.681525,4.14462081 Z" id="Shape" fill="#0B3058"></path>
                <polygon id="Path" fill="#0B3058" points="156.924721 0.445326279 160.399411 0.445326279 160.399411 19.5855379 156.924721 19.5855379"></polygon>
            </g>
        </g>
    </g>
</svg>
